Coordinates
version=1
nRows=14
nColumns=36
inDegrees=yes

Units are S.I. units (second, meters, Newtons, ...)
If the header above contains a line with 'inDegrees', this indicates whether rotational values are in degrees (yes) or radians (no).

endheader
time	pelvis_tilt	pelvis_list	pelvis_rotation	pelvis_tx	pelvis_ty	pelvis_tz	hip_flexion_r	hip_adduction_r	hip_rotation_r	knee_angle_r	knee_angle_r_beta	ankle_angle_r	subtalar_angle_r	mtp_angle_r	hip_flexion_l	hip_adduction_l	hip_rotation_l	knee_angle_l	knee_angle_l_beta	ankle_angle_l	subtalar_angle_l	mtp_angle_l	lumbar_extension	lumbar_bending	lumbar_rotation	arm_flex_r	arm_add_r	arm_rot_r	elbow_flex_r	pro_sup_r	arm_flex_l	arm_add_l	arm_rot_l	elbow_flex_l	pro_sup_l
      0.73000000	      5.11953795	     10.54387831	     -6.91495248	      0.70376051	      0.87612047	     -0.21267487	    -17.37621756	    -14.94185368	     -5.82669342	     43.20171799	      0.75401222	     -4.74976493	     -2.03812568	     -7.15345331	     13.00324639	     11.99810201	     -6.53348375	      9.11533563	      0.15909262	     -0.78922504	     -2.46795545	     -7.15345331	     -9.54296002	    -24.73292699	      9.29628841	      6.44913623	     -4.53978962	     29.63139289	     27.64479423	     99.77671652	      6.12341481	     -9.83087621	     -5.55472606	     23.46734795	     85.45258001
      0.74000000	      5.21474708	     11.46478296	     -6.96802090	      0.71551232	      0.87787449	     -0.21404045	    -15.55314360	    -16.41133782	     -5.75136482	     46.78783249	      0.81660173	     -6.85452002	     -3.92026735	     -7.15879134	     11.92366360	     13.17331664	     -6.29584742	      8.66937524	      0.15130914	     -0.11561146	     -1.90095611	     -7.15879134	     -9.49582303	    -26.04139535	      8.82725196	      6.22839956	     -4.44628843	     30.11666016	     26.49415153	     99.55529349	      6.51780897	     -9.99679986	     -5.78100404	     23.15620036	     85.40350354
      0.75000000	      5.48008015	     11.85928434	     -7.08174225	      0.72644902	      0.88008012	     -0.21522056	    -13.79944469	    -17.09427858	     -4.99228705	     50.21482718	      0.87641407	     -8.04124245	     -5.80576807	     -7.16437310	     10.66662223	     13.80365351	     -6.00652780	      8.29287896	      0.14473804	      0.40888249	     -1.41192969	     -7.16437310	     -9.84496642	    -26.72059219	      8.22680940	      6.22822789	     -4.55709468	     30.53727279	     25.63761450	     99.32985752	      6.90543270	    -10.09967676	     -6.05844128	     23.02187671	     85.38880951
      0.76000000	      5.80420766	     11.99234420	     -7.23468153	      0.73700764	      0.88238052	     -0.21648072	    -12.03471693	    -17.43708932	     -4.04829375	     53.50505081	      0.93383930	     -8.43690281	     -7.45075882	     -7.16891730	      9.29603039	     14.19484250	     -5.69619593	      7.82595964	      0.13658876	      0.83825217	     -1.04840589	     -7.16891730	    -10.35154159	    -27.01338812	      7.57798123	      6.25469420	     -4.74339832	     30.82732990	     25.05542350	     99.15209684	      7.25466018	    -10.01278512	     -6.33891045	     23.01388308	     85.39971854
      0.77000000	      6.03633716	     11.89777929	     -7.43628321	      0.74736539	      0.88460041	     -0.21759223	    -10.09912872	    -17.44691281	     -3.01078750	     56.61187240	      0.98806357	     -8.31265691	     -9.23226435	     -7.17398058	      7.98496453	     14.33896624	     -5.39210473	      7.29531316	      0.12732723	      1.16566822	     -0.79189414	     -7.17398058	    -10.75379754	    -27.03170096	      7.03932922	      6.24851137	     -5.02841433	     31.14207993	     24.55315722	     98.97748870	      7.54232121	     -9.92394220	     -6.75058729	     23.13450333	     85.43720683
      0.78000000	      6.13853718	     11.65415908	     -7.63646767	      0.75750087	      0.88659712	     -0.21887040	     -7.99123228	    -17.18041809	     -1.84718366	     59.51312227	      1.03869993	     -7.96629420	    -11.22348604	     -7.18323468	      6.80434574	     14.34785419	     -5.15417682	      6.73144745	      0.11748592	      1.39966436	     -0.74681300	     -7.18323468	    -10.99414665	    -26.77675471	      6.50872142	      6.30631348	     -5.44880138	     31.69645235	     24.13157593	     98.72103193	      7.69953818	     -9.69331579	     -7.58999678	     23.50777839	     85.55624847
      0.79000000	      6.36058533	     11.24317718	     -7.88810596	      0.76757479	      0.88871067	     -0.22010874	     -6.06240204	    -16.71451338	     -0.75708581	     62.09742324	      1.08380449	     -7.01215631	    -12.51403659	     -7.18795492	      5.37907961	     14.21987090	     -4.98251935	      5.96018047	      0.10402477	      1.71511301	     -0.62027725	     -7.18795492	    -11.42782863	    -26.31721007	      5.92493664	      6.33682546	     -5.93025587	     31.87544793	     24.04322072	     98.60344780	      7.80804451	     -9.51523974	     -7.96799904	     23.80905283	     85.65374702
      0.80000000	      6.35171547	     10.79266806	     -8.09413873	      0.77749366	      0.89044025	     -0.22141150	     -3.87320994	    -16.10949097	      0.30373357	     64.46855579	      1.12518856	     -6.13202195	    -13.81844396	     -7.19887276	      4.23554518	     14.02628301	     -4.89078715	      5.23524953	      0.09137234	      1.91810926	     -0.64880131	     -7.19887276	    -11.59992882	    -25.75752413	      5.35942924	      6.34809134	     -6.48761620	     32.25471041	     24.07538418	     98.38688259	      7.78050192	     -9.25888155	     -8.90202284	     24.45113700	     85.90488918
      0.81000000	      6.45183301	     10.24832942	     -8.22573104	      0.78733800	      0.89230619	     -0.22274470	     -1.94878329	    -15.32748940	      1.21706793	     66.41529226	      1.15916552	     -5.20537449	    -14.69954917	     -7.20166910	      2.89591753	     13.75378637	     -4.84345886	      4.40061642	      0.07680525	      2.20422060	     -0.42977237	     -7.20166910	    -11.95917216	    -25.07113392	      4.69111270	      6.38186377	     -7.04001126	     32.23003218	     24.14167905	     98.32876220	      7.84238089	     -9.09244930	     -8.99946737	     24.74013953	     86.00381159
      0.82000000	      6.40990268	      9.73329523	     -8.26529597	      0.79714286	      0.89385073	     -0.22406909	      0.05989440	    -14.51417735	      2.00458052	     68.10286796	      1.18861928	     -4.34598651	    -15.50032033	     -7.20405305	      1.73587273	     13.48076166	     -4.81132230	      3.59702377	      0.06277991	      2.47191620	     -0.15735357	     -7.20405305	    -12.18226308	    -24.36767463	      4.01632581	      6.33443732	     -7.55383204	     32.17436031	     24.31392322	     98.28738260	      7.88204452	     -8.94665999	     -9.02937075	     25.13381152	     86.11076623
      0.83000000	      6.22757749	      9.26278208	     -8.13383497	      0.80696315	      0.89516464	     -0.22547716	      2.10311174	    -13.69868170	      2.53648683	     69.45343624	      1.21219114	     -3.52051848	    -16.22918724	     -7.20674322	      0.74462708	     13.21817603	     -4.80756021	      2.84548265	      0.04966304	      2.77069273	      0.20778826	     -7.20674322	    -12.25851911	    -23.69738412	      3.30627818	      6.19520852	     -8.10846755	     32.04638372	     24.56517967	     98.24096063	      7.87289763	     -8.83497193	     -9.01426081	     25.67726060	     86.24874122
      0.84000000	      5.97754019	      8.84154732	     -7.85067252	      0.81674017	      0.89628053	     -0.22691222	      4.10734482	    -12.92797632	      2.83815219	     70.48184406	      1.23014024	     -2.74818636	    -16.83991966	     -7.20990700	     -0.08736230	     12.96709060	     -4.80068146	      2.25054309	      0.03927939	      3.13684265	      0.72056228	     -7.20990700	    -12.31841798	    -23.06940446	      2.44920033	      6.02124188	     -8.61235302	     31.77637026	     24.90675201	     98.17891685	      7.82912065	     -8.78167790	     -8.93558377	     26.32448495	     86.42073170
      0.85000000	      5.94009885	      8.51132816	     -7.35444959	      0.82639363	      0.89762490	     -0.22859619	      5.74538580	    -12.39191861	      2.73271978	     71.12065219	      1.24128955	     -2.44258211	    -17.07371726	     -7.21059896	     -0.98545383	     12.82049667	     -4.99585040	      1.94930428	      0.03402178	      3.28153311	      0.87258448	     -7.21059896	    -12.70273734	    -22.55727378	      1.60926738	      5.84071411	     -9.09355999	     31.62581666	     24.86963086	     98.14715919	      8.20945258	     -8.63419477	     -8.83333580	     26.60555375	     86.48120630
      0.86000000	      5.53995882	      8.14776655	     -6.86041921	      0.83615886	      0.89835645	     -0.22989059	      7.72757994	    -11.66385494	      2.75636127	     71.55370351	      1.24884772	     -1.10505974	    -17.36843555	     -7.23130254	     -1.44395660	     12.46432629	     -5.49754019	      1.80237444	      0.03145737	      4.71514254	      3.57015752	     -7.23130254	    -12.68284866	    -21.97682033	      0.49669318	      5.26214792	     -9.35981073	     29.06272833	     26.17587262	     97.73540897	      7.82731741	     -8.76780617	     -8.62924724	     27.82122551	     87.23704492
